<svg viewBox="0 0 140 182" fill="none" xmlns="http://www.w3.org/2000/svg">
<path d="M187.407 0H219.164L153.093 65.4502C141.58 76.8308 126.012 83.2178 109.786 83.2178C93.5597 83.2178 77.9918 76.8308 66.4786 65.4502L0.408203 0H32.1646L82.3568 49.7222C89.65 56.928 99.5097 60.9715 109.786 60.9715C120.062 60.9715 129.922 56.928 137.215 49.7222L187.407 0Z" fill="#383838" fill-opacity="0.05"/>
<path d="M0 182H31.7564L82.3521 131.876C89.6453 124.67 99.505 120.627 109.781 120.627C120.058 120.627 129.917 124.67 137.21 131.876L187.806 182H219.562L153.089 116.148C141.575 104.767 126.008 98.3806 109.781 98.3806C93.555 98.3806 77.987 104.767 66.4739 116.148L0 182Z" fill="#383838" fill-opacity="0.05"/>
</svg>
